<svg xmlns="http://www.w3.org/2000/svg" width="1600" height="1000" viewBox="0 0 1600 1000">
  <defs>
    <radialGradient id="bg" cx="50%" cy="45%" r="78%">
      <stop offset="0%" stop-color="#0b172f"/>
      <stop offset="100%" stop-color="#020718"/>
    </radialGradient>
  </defs>
  <rect width="1600" height="1000" fill="url(#bg)"/>
  <circle cx="385.8" cy="457.7" r="2.17" fill="#f4f9ff" opacity="0.25"/><circle cx="77.0" cy="342.0" r="2.60" fill="#f4f9ff" opacity="0.46"/><circle cx="193.7" cy="328.6" r="2.12" fill="#f4f9ff" opacity="0.50"/><circle cx="500.8" cy="258.7" r="2.65" fill="#f4f9ff" opacity="0.47"/><circle cx="1118.0" cy="509.3" r="1.30" fill="#f4f9ff" opacity="0.27"/><circle cx="814.4" cy="858.5" r="1.02" fill="#f4f9ff" opacity="0.27"/><circle cx="861.7" cy="9.0" r="2.27" fill="#f4f9ff" opacity="0.47"/><circle cx="1569.9" cy="158.7" r="2.67" fill="#f4f9ff" opacity="0.20"/><circle cx="1430.2" cy="260.0" r="1.10" fill="#f4f9ff" opacity="0.49"/><circle cx="1192.0" cy="858.4" r="2.05" fill="#f4f9ff" opacity="0.41"/><circle cx="1196.4" cy="650.5" r="2.45" fill="#f4f9ff" opacity="0.21"/><circle cx="1493.4" cy="152.8" r="1.29" fill="#f4f9ff" opacity="0.22"/><circle cx="266.4" cy="120.9" r="2.01" fill="#f4f9ff" opacity="0.35"/><circle cx="890.1" cy="610.5" r="1.45" fill="#f4f9ff" opacity="0.66"/><circle cx="1545.5" cy="821.2" r="0.82" fill="#f4f9ff" opacity="0.62"/><circle cx="917.8" cy="112.2" r="1.07" fill="#f4f9ff" opacity="0.42"/><circle cx="1103.2" cy="832.3" r="2.19" fill="#f4f9ff" opacity="0.57"/><circle cx="446.8" cy="853.4" r="1.85" fill="#f4f9ff" opacity="0.47"/><circle cx="1439.5" cy="949.1" r="2.54" fill="#f4f9ff" opacity="0.32"/><circle cx="1597.7" cy="408.6" r="2.69" fill="#f4f9ff" opacity="0.52"/><circle cx="1250.1" cy="526.1" r="0.89" fill="#f4f9ff" opacity="0.48"/><circle cx="157.7" cy="857.9" r="0.94" fill="#f4f9ff" opacity="0.27"/><circle cx="92.0" cy="385.5" r="2.31" fill="#f4f9ff" opacity="0.41"/><circle cx="495.3" cy="977.2" r="0.81" fill="#f4f9ff" opacity="0.37"/><circle cx="349.4" cy="788.2" r="1.95" fill="#f4f9ff" opacity="0.27"/><circle cx="576.6" cy="489.5" r="2.57" fill="#f4f9ff" opacity="0.25"/><circle cx="99.1" cy="466.8" r="1.12" fill="#f4f9ff" opacity="0.26"/><circle cx="1480.6" cy="379.5" r="2.67" fill="#f4f9ff" opacity="0.20"/><circle cx="876.2" cy="721.2" r="2.01" fill="#f4f9ff" opacity="0.28"/><circle cx="1414.9" cy="270.8" r="1.17" fill="#f4f9ff" opacity="0.65"/><circle cx="1539.9" cy="577.1" r="2.10" fill="#f4f9ff" opacity="0.25"/><circle cx="1431.5" cy="865.2" r="1.19" fill="#f4f9ff" opacity="0.41"/><circle cx="638.6" cy="6.7" r="1.55" fill="#f4f9ff" opacity="0.29"/><circle cx="441.9" cy="444.4" r="2.30" fill="#f4f9ff" opacity="0.50"/><circle cx="876.1" cy="211.3" r="2.55" fill="#f4f9ff" opacity="0.63"/><circle cx="333.6" cy="435.0" r="1.18" fill="#f4f9ff" opacity="0.38"/><circle cx="1277.1" cy="967.9" r="2.68" fill="#f4f9ff" opacity="0.31"/><circle cx="384.7" cy="34.9" r="1.39" fill="#f4f9ff" opacity="0.43"/><circle cx="1052.5" cy="36.8" r="1.18" fill="#f4f9ff" opacity="0.21"/><circle cx="180.4" cy="903.1" r="1.91" fill="#f4f9ff" opacity="0.21"/><circle cx="765.4" cy="632.3" r="1.12" fill="#f4f9ff" opacity="0.31"/><circle cx="1428.1" cy="911.6" r="2.39" fill="#f4f9ff" opacity="0.48"/><circle cx="796.5" cy="956.4" r="1.59" fill="#f4f9ff" opacity="0.23"/><circle cx="673.2" cy="959.8" r="2.41" fill="#f4f9ff" opacity="0.54"/><circle cx="309.8" cy="793.8" r="1.09" fill="#f4f9ff" opacity="0.57"/><circle cx="114.8" cy="851.3" r="2.19" fill="#f4f9ff" opacity="0.32"/><circle cx="1518.4" cy="170.8" r="2.35" fill="#f4f9ff" opacity="0.56"/><circle cx="1321.1" cy="233.7" r="1.15" fill="#f4f9ff" opacity="0.28"/><circle cx="49.6" cy="75.5" r="1.64" fill="#f4f9ff" opacity="0.42"/><circle cx="1045.3" cy="600.3" r="1.70" fill="#f4f9ff" opacity="0.56"/><circle cx="1411.2" cy="241.1" r="2.41" fill="#f4f9ff" opacity="0.56"/><circle cx="341.1" cy="354.6" r="1.38" fill="#f4f9ff" opacity="0.45"/><circle cx="1156.7" cy="992.0" r="1.99" fill="#f4f9ff" opacity="0.53"/><circle cx="1378.1" cy="937.1" r="1.67" fill="#f4f9ff" opacity="0.56"/><circle cx="751.0" cy="151.2" r="2.61" fill="#f4f9ff" opacity="0.29"/><circle cx="1557.8" cy="15.4" r="1.27" fill="#f4f9ff" opacity="0.42"/><circle cx="1536.0" cy="12.0" r="1.17" fill="#f4f9ff" opacity="0.19"/><circle cx="929.1" cy="735.2" r="2.34" fill="#f4f9ff" opacity="0.67"/><circle cx="796.3" cy="370.4" r="1.50" fill="#f4f9ff" opacity="0.32"/><circle cx="503.9" cy="35.3" r="1.15" fill="#f4f9ff" opacity="0.21"/><circle cx="1125.0" cy="621.0" r="1.48" fill="#f4f9ff" opacity="0.58"/><circle cx="1072.4" cy="24.9" r="1.19" fill="#f4f9ff" opacity="0.51"/><circle cx="1088.8" cy="915.7" r="2.66" fill="#f4f9ff" opacity="0.54"/><circle cx="919.6" cy="422.0" r="1.24" fill="#f4f9ff" opacity="0.27"/><circle cx="794.2" cy="383.5" r="2.42" fill="#f4f9ff" opacity="0.59"/><circle cx="439.8" cy="56.5" r="2.05" fill="#f4f9ff" opacity="0.30"/><circle cx="1552.7" cy="414.6" r="0.96" fill="#f4f9ff" opacity="0.39"/><circle cx="853.1" cy="433.9" r="1.32" fill="#f4f9ff" opacity="0.25"/><circle cx="1246.8" cy="5.4" r="2.24" fill="#f4f9ff" opacity="0.57"/><circle cx="220.7" cy="362.6" r="1.52" fill="#f4f9ff" opacity="0.57"/><circle cx="1395.3" cy="167.4" r="1.25" fill="#f4f9ff" opacity="0.19"/><circle cx="1160.5" cy="643.2" r="2.28" fill="#f4f9ff" opacity="0.29"/><circle cx="319.0" cy="397.0" r="1.37" fill="#f4f9ff" opacity="0.59"/><circle cx="1462.6" cy="820.4" r="1.82" fill="#f4f9ff" opacity="0.52"/><circle cx="1206.5" cy="209.7" r="0.90" fill="#f4f9ff" opacity="0.37"/><circle cx="1205.5" cy="997.7" r="1.91" fill="#f4f9ff" opacity="0.30"/><circle cx="1479.5" cy="735.1" r="2.09" fill="#f4f9ff" opacity="0.28"/><circle cx="770.8" cy="714.3" r="1.00" fill="#f4f9ff" opacity="0.22"/><circle cx="259.0" cy="375.2" r="0.81" fill="#f4f9ff" opacity="0.29"/><circle cx="959.7" cy="884.1" r="2.22" fill="#f4f9ff" opacity="0.25"/><circle cx="1530.1" cy="525.4" r="2.44" fill="#f4f9ff" opacity="0.56"/><circle cx="408.1" cy="798.4" r="2.05" fill="#f4f9ff" opacity="0.46"/><circle cx="208.4" cy="357.6" r="1.32" fill="#f4f9ff" opacity="0.52"/><circle cx="1502.5" cy="189.7" r="1.41" fill="#f4f9ff" opacity="0.44"/><circle cx="705.3" cy="665.6" r="1.61" fill="#f4f9ff" opacity="0.44"/><circle cx="795.4" cy="359.2" r="1.18" fill="#f4f9ff" opacity="0.50"/><circle cx="793.3" cy="773.7" r="1.78" fill="#f4f9ff" opacity="0.60"/><circle cx="721.2" cy="365.6" r="1.18" fill="#f4f9ff" opacity="0.26"/><circle cx="1572.3" cy="507.1" r="1.44" fill="#f4f9ff" opacity="0.33"/><circle cx="1011.4" cy="277.7" r="2.60" fill="#f4f9ff" opacity="0.35"/><defs><marker id="aw" viewBox="0 0 10 10" refX="9" refY="5" markerWidth="6" markerHeight="6" orient="auto">
    <path d="M0 0 L10 5 L0 10 z" fill="#facc15"/>
  </marker><marker id="at" viewBox="0 0 10 10" refX="9" refY="5" markerWidth="6" markerHeight="6" orient="auto">
    <path d="M0 0 L10 5 L0 10 z" fill="#00babb"/>
  </marker></defs><line x1="800" y1="130" x2="800" y2="880" stroke="#19263f" stroke-width="2" opacity="0.8"/>
    <path d="M150 730 A 820 820 0 0 1 750 730"
      fill="none" stroke="#3a5f9e" stroke-width="6" opacity="0.5"/>
    <circle cx="450" cy="430" r="78" fill="#497ef7" opacity="0.85"/>
    <line x1="450" y1="524" x2="450" y2="756" stroke="#facc15" stroke-width="9" marker-end="url(#aw)"/>
    <line x1="356" y1="430" x2="182" y2="430" stroke="#00babb" stroke-width="9" marker-end="url(#at)"/>
    <path d="M850 730 A 1700 1700 0 0 1 1450 730"
      fill="none" stroke="#3a5f9e" stroke-width="6" opacity="0.5"/>
    <circle cx="1150" cy="430" r="78" fill="#497ef7" opacity="0.85"/>
    <line x1="1150" y1="524" x2="1150" y2="602" stroke="#facc15" stroke-width="9" marker-end="url(#aw)"/>
    <line x1="1056" y1="430" x2="882" y2="430" stroke="#00babb" stroke-width="9" marker-end="url(#at)"/></svg>