<svg xmlns="http://www.w3.org/2000/svg" width="1600" height="1000" viewBox="0 0 1600 1000">
  <defs>
    <radialGradient id="bg" cx="50%" cy="45%" r="78%">
      <stop offset="0%" stop-color="#0b172f"/>
      <stop offset="100%" stop-color="#020718"/>
    </radialGradient>
  </defs>
  <rect width="1600" height="1000" fill="url(#bg)"/>
  <circle cx="389.5" cy="1.9" r="2.38" fill="#f4f9ff" opacity="0.37"/><circle cx="75.1" cy="828.3" r="1.81" fill="#f4f9ff" opacity="0.20"/><circle cx="277.4" cy="673.3" r="1.59" fill="#f4f9ff" opacity="0.55"/><circle cx="278.7" cy="969.7" r="1.46" fill="#f4f9ff" opacity="0.37"/><circle cx="988.3" cy="600.5" r="0.91" fill="#f4f9ff" opacity="0.43"/><circle cx="1048.8" cy="235.5" r="1.06" fill="#f4f9ff" opacity="0.48"/><circle cx="388.8" cy="659.8" r="1.50" fill="#f4f9ff" opacity="0.27"/><circle cx="1344.5" cy="862.5" r="1.76" fill="#f4f9ff" opacity="0.66"/><circle cx="1078.0" cy="898.3" r="1.83" fill="#f4f9ff" opacity="0.26"/><circle cx="1415.1" cy="790.4" r="0.89" fill="#f4f9ff" opacity="0.35"/><circle cx="228.4" cy="988.3" r="1.23" fill="#f4f9ff" opacity="0.38"/><circle cx="891.1" cy="147.5" r="2.01" fill="#f4f9ff" opacity="0.44"/><circle cx="1525.9" cy="245.4" r="2.31" fill="#f4f9ff" opacity="0.43"/><circle cx="1374.4" cy="300.3" r="0.99" fill="#f4f9ff" opacity="0.39"/><circle cx="1211.1" cy="208.4" r="2.40" fill="#f4f9ff" opacity="0.55"/><circle cx="729.0" cy="464.4" r="1.06" fill="#f4f9ff" opacity="0.38"/><circle cx="1019.4" cy="781.8" r="0.97" fill="#f4f9ff" opacity="0.26"/><circle cx="1472.1" cy="878.2" r="1.94" fill="#f4f9ff" opacity="0.51"/><circle cx="21.9" cy="941.1" r="1.76" fill="#f4f9ff" opacity="0.52"/><circle cx="1264.1" cy="539.8" r="0.89" fill="#f4f9ff" opacity="0.51"/><circle cx="566.1" cy="0.1" r="2.33" fill="#f4f9ff" opacity="0.37"/><circle cx="699.4" cy="505.2" r="2.01" fill="#f4f9ff" opacity="0.48"/><circle cx="1116.3" cy="441.2" r="1.25" fill="#f4f9ff" opacity="0.55"/><circle cx="1197.3" cy="750.0" r="1.43" fill="#f4f9ff" opacity="0.21"/><circle cx="1594.2" cy="307.8" r="2.11" fill="#f4f9ff" opacity="0.19"/><circle cx="992.4" cy="593.0" r="1.55" fill="#f4f9ff" opacity="0.45"/><circle cx="419.9" cy="159.7" r="1.00" fill="#f4f9ff" opacity="0.49"/><circle cx="425.2" cy="682.9" r="1.23" fill="#f4f9ff" opacity="0.30"/><circle cx="852.0" cy="590.2" r="1.20" fill="#f4f9ff" opacity="0.50"/><circle cx="532.8" cy="546.6" r="1.71" fill="#f4f9ff" opacity="0.52"/><circle cx="1028.7" cy="306.6" r="1.86" fill="#f4f9ff" opacity="0.33"/><circle cx="1339.4" cy="700.9" r="1.80" fill="#f4f9ff" opacity="0.52"/><circle cx="1308.2" cy="772.4" r="2.44" fill="#f4f9ff" opacity="0.49"/><circle cx="1447.3" cy="326.4" r="1.20" fill="#f4f9ff" opacity="0.22"/><circle cx="109.1" cy="412.9" r="2.14" fill="#f4f9ff" opacity="0.19"/><circle cx="527.0" cy="503.5" r="2.54" fill="#f4f9ff" opacity="0.58"/><circle cx="651.7" cy="382.1" r="1.69" fill="#f4f9ff" opacity="0.23"/><circle cx="1508.2" cy="11.4" r="2.60" fill="#f4f9ff" opacity="0.57"/><circle cx="1397.8" cy="893.5" r="2.05" fill="#f4f9ff" opacity="0.37"/><circle cx="1270.3" cy="689.4" r="1.29" fill="#f4f9ff" opacity="0.20"/><circle cx="591.9" cy="112.2" r="1.73" fill="#f4f9ff" opacity="0.25"/><circle cx="233.0" cy="360.9" r="1.57" fill="#f4f9ff" opacity="0.61"/><circle cx="501.6" cy="609.8" r="2.35" fill="#f4f9ff" opacity="0.38"/><circle cx="447.0" cy="319.3" r="2.56" fill="#f4f9ff" opacity="0.63"/><circle cx="158.4" cy="382.8" r="1.46" fill="#f4f9ff" opacity="0.57"/><circle cx="184.5" cy="377.4" r="2.60" fill="#f4f9ff" opacity="0.42"/><circle cx="598.0" cy="431.7" r="1.19" fill="#f4f9ff" opacity="0.49"/><circle cx="1030.1" cy="478.2" r="1.03" fill="#f4f9ff" opacity="0.66"/><circle cx="201.1" cy="904.4" r="2.22" fill="#f4f9ff" opacity="0.20"/><circle cx="270.9" cy="869.2" r="2.54" fill="#f4f9ff" opacity="0.67"/><circle cx="934.3" cy="800.6" r="2.27" fill="#f4f9ff" opacity="0.22"/><circle cx="587.7" cy="838.3" r="1.10" fill="#f4f9ff" opacity="0.20"/><circle cx="1490.3" cy="239.8" r="2.63" fill="#f4f9ff" opacity="0.18"/><circle cx="245.5" cy="12.8" r="2.59" fill="#f4f9ff" opacity="0.64"/><circle cx="1328.6" cy="291.4" r="2.14" fill="#f4f9ff" opacity="0.42"/><circle cx="583.7" cy="220.9" r="2.33" fill="#f4f9ff" opacity="0.29"/><circle cx="1216.4" cy="367.0" r="1.12" fill="#f4f9ff" opacity="0.66"/><circle cx="407.2" cy="915.2" r="1.28" fill="#f4f9ff" opacity="0.22"/><circle cx="269.0" cy="175.6" r="2.20" fill="#f4f9ff" opacity="0.26"/><circle cx="1276.8" cy="159.3" r="1.90" fill="#f4f9ff" opacity="0.59"/><circle cx="690.5" cy="241.3" r="2.21" fill="#f4f9ff" opacity="0.36"/><circle cx="1299.9" cy="176.6" r="2.68" fill="#f4f9ff" opacity="0.52"/><circle cx="1014.2" cy="983.3" r="1.71" fill="#f4f9ff" opacity="0.27"/><circle cx="1421.2" cy="461.3" r="0.93" fill="#f4f9ff" opacity="0.50"/><circle cx="243.6" cy="358.4" r="1.92" fill="#f4f9ff" opacity="0.64"/><circle cx="213.2" cy="452.9" r="1.78" fill="#f4f9ff" opacity="0.33"/><circle cx="92.8" cy="66.1" r="2.15" fill="#f4f9ff" opacity="0.40"/><circle cx="1166.6" cy="771.7" r="1.25" fill="#f4f9ff" opacity="0.59"/><circle cx="527.2" cy="316.2" r="1.65" fill="#f4f9ff" opacity="0.53"/><circle cx="481.6" cy="18.2" r="2.18" fill="#f4f9ff" opacity="0.66"/><circle cx="1404.0" cy="159.1" r="2.11" fill="#f4f9ff" opacity="0.52"/><circle cx="157.8" cy="134.4" r="2.22" fill="#f4f9ff" opacity="0.21"/><circle cx="613.1" cy="377.9" r="1.17" fill="#f4f9ff" opacity="0.25"/><circle cx="1585.2" cy="327.2" r="1.50" fill="#f4f9ff" opacity="0.31"/><circle cx="1517.4" cy="943.9" r="1.75" fill="#f4f9ff" opacity="0.46"/><circle cx="434.9" cy="555.4" r="1.30" fill="#f4f9ff" opacity="0.49"/><circle cx="893.5" cy="34.0" r="1.13" fill="#f4f9ff" opacity="0.25"/><circle cx="449.3" cy="577.9" r="1.47" fill="#f4f9ff" opacity="0.38"/><circle cx="572.6" cy="610.8" r="1.42" fill="#f4f9ff" opacity="0.55"/><circle cx="1333.3" cy="565.2" r="2.25" fill="#f4f9ff" opacity="0.36"/><circle cx="1180.8" cy="565.2" r="1.73" fill="#f4f9ff" opacity="0.23"/><circle cx="744.5" cy="273.7" r="0.92" fill="#f4f9ff" opacity="0.27"/><circle cx="379.8" cy="421.4" r="2.26" fill="#f4f9ff" opacity="0.63"/><circle cx="784.0" cy="781.2" r="2.44" fill="#f4f9ff" opacity="0.60"/><circle cx="407.7" cy="604.7" r="1.44" fill="#f4f9ff" opacity="0.19"/><circle cx="1386.8" cy="786.4" r="2.07" fill="#f4f9ff" opacity="0.26"/><circle cx="919.4" cy="271.1" r="1.16" fill="#f4f9ff" opacity="0.61"/><circle cx="1412.9" cy="469.9" r="1.00" fill="#f4f9ff" opacity="0.37"/><circle cx="1127.3" cy="700.6" r="1.37" fill="#f4f9ff" opacity="0.46"/><circle cx="1037.4" cy="918.3" r="1.61" fill="#f4f9ff" opacity="0.53"/><rect x="150" y="240" width="390" height="44" rx="22" fill="#00babb" opacity="0.85"/>
        <line x1="150" y1="292" x2="150" y2="814" stroke="#00babb" stroke-width="2" opacity="0.3" stroke-dasharray="7 9"/>
        <line x1="540" y1="292" x2="540" y2="814" stroke="#00babb" stroke-width="2" opacity="0.3" stroke-dasharray="7 9"/><rect x="384" y="368" width="481.0000000000001" height="44" rx="22" fill="#497ef7" opacity="0.85"/>
        <line x1="384" y1="420" x2="384" y2="814" stroke="#497ef7" stroke-width="2" opacity="0.3" stroke-dasharray="7 9"/>
        <line x1="865.0000000000001" y1="420" x2="865.0000000000001" y2="814" stroke="#497ef7" stroke-width="2" opacity="0.3" stroke-dasharray="7 9"/><rect x="696" y="496" width="494" height="44" rx="22" fill="#facc15" opacity="0.85"/>
        <line x1="696" y1="548" x2="696" y2="814" stroke="#facc15" stroke-width="2" opacity="0.3" stroke-dasharray="7 9"/>
        <line x1="1190" y1="548" x2="1190" y2="814" stroke="#facc15" stroke-width="2" opacity="0.3" stroke-dasharray="7 9"/><rect x="1008" y="624" width="442" height="44" rx="22" fill="#c58cf0" opacity="0.85"/>
        <line x1="1008" y1="676" x2="1008" y2="814" stroke="#c58cf0" stroke-width="2" opacity="0.3" stroke-dasharray="7 9"/>
        <line x1="1450" y1="676" x2="1450" y2="814" stroke="#c58cf0" stroke-width="2" opacity="0.3" stroke-dasharray="7 9"/>
    <line x1="150" y1="814" x2="1450" y2="814" stroke="#f4f9ff" stroke-width="3" opacity="0.6"/>
    <line x1="150" y1="814" x2="150" y2="836" stroke="#f4f9ff" stroke-width="3" opacity="0.45"/><line x1="312.5" y1="814" x2="312.5" y2="836" stroke="#f4f9ff" stroke-width="3" opacity="0.45"/><line x1="475" y1="814" x2="475" y2="836" stroke="#f4f9ff" stroke-width="3" opacity="0.45"/><line x1="637.5" y1="814" x2="637.5" y2="836" stroke="#f4f9ff" stroke-width="3" opacity="0.45"/><line x1="800" y1="814" x2="800" y2="836" stroke="#f4f9ff" stroke-width="3" opacity="0.45"/><line x1="962.5" y1="814" x2="962.5" y2="836" stroke="#f4f9ff" stroke-width="3" opacity="0.45"/><line x1="1125" y1="814" x2="1125" y2="836" stroke="#f4f9ff" stroke-width="3" opacity="0.45"/><line x1="1287.5" y1="814" x2="1287.5" y2="836" stroke="#f4f9ff" stroke-width="3" opacity="0.45"/><line x1="1450" y1="814" x2="1450" y2="836" stroke="#f4f9ff" stroke-width="3" opacity="0.45"/></svg>